<svg width="107" height="23" viewBox="0 0 107 23" fill="none" xmlns="http://www.w3.org/2000/svg">
<path d="M7.99299 22.8764C3.14995 22.8764 0 19.5164 0 14.7259C0 9.93534 3.14995 6.57539 7.99299 6.57539C11.6417 6.57539 14.201 8.60973 15.0016 10.8409C15.2116 11.4578 14.936 11.7728 14.5423 11.9566L13.0854 12.5997C12.4685 12.8753 12.0092 12.6653 11.7598 12.2584C11.1692 11.3659 10.2111 10.1322 7.99299 10.1322C5.34178 10.1322 3.70119 11.7991 3.70119 14.739C3.70119 17.679 5.34178 19.3458 7.99299 19.3458C10.2111 19.3458 11.1692 18.1121 11.7598 17.2196C12.0092 16.8127 12.4685 16.6027 13.0854 16.8783L14.5423 17.5215C14.9491 17.7052 15.251 18.0202 15.0016 18.6371C14.1354 20.8158 11.6417 22.8764 7.99299 22.8764Z" fill="#314259"/>
<path d="M18.1272 22.5352C17.5759 22.5352 17.1953 22.1677 17.1953 21.6034V0.931859C17.1953 0.380618 17.5628 0 18.1272 0H19.9778C20.529 0 20.9096 0.367494 20.9096 0.931859V21.6165C20.9096 22.1677 20.5421 22.5484 19.9778 22.5484H18.1272V22.5352Z" fill="#314259"/>
<path d="M31.2742 22.8499C26.3 22.8499 23.2812 20.0675 23.2812 14.6994C23.2812 10.0008 26.4049 6.5752 31.0905 6.5752C35.6579 6.5752 38.1647 9.97451 38.1647 14.0826C38.1647 15.1063 37.666 15.7757 36.4979 15.7757H26.7462C26.9299 18.5187 28.5968 19.6081 31.3792 19.6081C33.1642 19.6081 34.4111 19.175 35.2642 18.8075C35.9467 18.5319 36.406 18.4925 36.7473 19.175L37.1804 20.0675C37.4954 20.7106 37.4298 21.1831 36.9048 21.5243C36.1829 21.9837 34.1092 22.8499 31.2742 22.8499ZM26.7593 13.3738H34.6998C34.4898 10.8145 33.0067 9.81701 30.9986 9.81701C28.7674 9.81701 27.0481 10.8014 26.7593 13.3738Z" fill="#314259"/>
<path d="M49.8603 20.6583C48.7184 21.8658 46.7103 22.8502 44.5448 22.8502C41.2767 22.8502 39.3867 20.9996 39.3867 18.1252C39.3867 15.2903 41.6442 13.2822 45.8441 13.2822C47.301 13.2822 48.5347 13.5578 49.5453 13.8991V12.5341C49.5453 10.8935 48.5216 9.88288 46.4216 9.88288C44.8729 9.88288 43.731 10.316 42.7729 10.7229C42.2742 10.9329 41.7886 10.8804 41.5392 10.3816L40.9879 9.26602C40.6729 8.6754 40.7386 8.15041 41.4211 7.78292C42.681 7.10043 44.571 6.57544 46.671 6.57544C50.3722 6.57544 53.1284 8.33416 53.1284 12.416V21.6164C53.1284 22.1677 52.7609 22.5483 52.1965 22.5483H50.779C50.2278 22.5483 49.8472 22.1808 49.8472 21.6164V20.6583H49.8603ZM45.4504 19.7921C46.9991 19.7921 48.4166 19.2408 49.4928 18.4009V16.3928C48.5609 16.209 47.5766 16.0778 46.3691 16.0778C44.2954 16.0778 43.101 16.7603 43.101 18.0859C43.101 19.149 43.9279 19.7921 45.4504 19.7921Z" fill="#314259"/>
<path d="M59.009 22.5353H57.1584C56.6072 22.5353 56.2266 22.1678 56.2266 21.6034V7.8093C56.2266 7.25806 56.5941 6.87744 57.1584 6.87744H58.8515C59.4028 6.87744 59.7834 7.24493 59.7834 7.8093V9.5024C60.6496 8.26867 62.159 6.87744 64.5083 6.87744C65.1252 6.87744 65.4402 7.24493 65.4402 7.8093V9.56802C65.4402 10.093 65.0727 10.4343 64.5083 10.4343H64.0096C61.9752 10.4343 60.8859 10.8936 59.9278 11.7336V21.6166C59.9278 22.1678 59.5603 22.5353 59.009 22.5353Z" fill="#314259"/>
<path d="M74.5366 22.5354H73.4866C68.7617 22.5354 67.1211 20.3173 67.1211 17.1017V3.08445C67.1211 2.53321 67.4886 2.15259 68.053 2.15259H69.9035C70.4548 2.15259 70.8354 2.52008 70.8354 3.08445V6.87751H74.5366C75.0878 6.87751 75.4685 7.245 75.4685 7.80937V9.20059C75.4685 9.75183 75.101 10.1325 74.5366 10.1325H70.8354V17.5479C70.8354 18.7161 71.636 19.3067 73.0535 19.3067H74.5366C75.0878 19.3067 75.4685 19.6742 75.4685 20.2385V21.6298C75.4685 22.1679 75.0878 22.5354 74.5366 22.5354Z" fill="#314259"/>
<path d="M87.3173 20.6581C86.1755 21.8656 84.1674 22.8499 82.0018 22.8499C78.7337 22.8499 76.8438 20.9993 76.8438 18.125C76.8438 15.29 79.1012 13.282 83.3011 13.282C84.758 13.282 85.9917 13.5576 87.0023 13.8988V12.5338C87.0023 10.8932 85.9786 9.88264 83.8786 9.88264C82.3299 9.88264 81.188 10.3158 80.2299 10.7226C79.7312 10.9326 79.2456 10.8801 78.9962 10.3814L78.445 9.26577C78.13 8.67516 78.1956 8.15017 78.8781 7.78267C80.1381 7.10019 82.028 6.5752 84.128 6.5752C87.8292 6.5752 90.5854 8.33391 90.5854 12.4157V21.6162C90.5854 22.1674 90.2179 22.548 89.6535 22.548H88.2361C87.6848 22.548 87.3042 22.1806 87.3042 21.6162V20.6581H87.3173ZM82.9074 19.7918C84.4561 19.7918 85.8736 19.2406 86.9498 18.4006V16.3925C86.018 16.2088 85.0336 16.0775 83.8261 16.0775C81.7524 16.0775 80.5581 16.76 80.5581 18.0856C80.5581 19.1487 81.3849 19.7918 82.9074 19.7918Z" fill="#314259"/>
<path d="M94.9711 22.5353H92.8712C92.3199 22.5353 92.1624 22.0103 92.4118 21.6428L97.163 14.6604L92.4118 7.76993C92.1362 7.36306 92.3199 6.87744 92.8712 6.87744H95.063C95.8636 6.87744 96.2705 7.03494 96.6117 7.58618L99.6042 12.2192L102.57 7.58618C102.912 7.06119 103.305 6.87744 104.119 6.87744H106.219C106.77 6.87744 106.928 7.40243 106.678 7.76993L101.927 14.7654L106.678 21.6559C106.954 22.0628 106.77 22.5484 106.219 22.5484H104.027C103.227 22.5484 102.82 22.3647 102.478 21.8397L99.486 17.1935L96.5461 21.7741C96.1786 22.3253 95.7849 22.5353 94.9711 22.5353Z" fill="#314259"/>
</svg>
