<svg width="42" height="42" fill="none" xmlns="http://www.w3.org/2000/svg"><path d="M41.75 24.372c0 4.496-2.57 8.671-6.423 11.561l-.504 3.02a3.303 3.303 0 01-3.258 2.761h-.735a2.57 2.57 0 01-2.569-2.57c-1.927.322-3.532.643-5.78.643-1.927 0-3.854-.321-5.781-.642a2.57 2.57 0 01-2.57 2.569h-.783a3.353 3.353 0 01-3.288-2.695l-.746-3.728c-2.248-1.606-3.853-3.854-4.817-6.423l-2.125-.455A3 3 0 010 25.479v-2.501a3 3 0 012.412-2.942l2.405-.481c.643-1.927 1.927-3.533 3.533-5.139l-1.172-5.39A1 1 0 018.587 7.91l5.544 2.652c2.569-.964 5.46-1.606 8.67-1.606 10.599 0 18.948 7.065 18.948 15.415z" fill="#FB9650"/><path d="M30.421 23.158C36.816 23.158 42 17.974 42 11.579 42 5.184 36.816 0 30.421 0c-6.395 0-11.579 5.184-11.579 11.579 0 6.395 5.184 11.579 11.579 11.579z" fill="#FDBF53"/><path d="M28.025 8.735c1.777 0 2.843 1.033 2.843 2.045h1.5c0-2.182-2.127-3.545-4.343-3.545v1.5zm2.843 2.045c0 .453-.27.9-.87 1.272-.602.371-1.448.6-2.33.6v1.5c1.114 0 2.243-.284 3.118-.824s1.582-1.404 1.582-2.548h-1.5zm-3.2 1.872h-.005-.002-.002-.007-.002-.002-.002-.002-.002-.002-.002-.002-.002-.002-.002-.002-.001-.002-.002-.002-.003-.002-.003-.002-.001-.002-.001-.002-.001-.002-.001-.002-.001-.001-.002-.001-.001-.004-.001-.001-.006-.001-.001-.001-.001-.005-.001-.003-.007-.003-.001-.001-.003v1.5H27.784v-1.5h-.001-.001-.001-.005-.001-.005-.003-.001-.001H27.753h-.001-.001-.001-.004-.001-.004-.001-.002-.001-.002-.001-.002-.001-.002-.001-.002-.001-.002-.001-.002-.002-.003-.002-.002-.003-.002-.002-.002-.002-.002-.002-.002-.002-.002-.002-.002-.002-.007-.002-.005-.002v1.5H27.783v-1.5h-.001-.003-.001-.001-.001-.002-.001-.001-.001-.004-.001-.001-.005-.003-.001-.003-.001-.001-.003-.001-.001-.001-.001-.001-.007-.002-.002-.002-.002-.002-.008-.001-.001-.001-.001-.001-.001-.006-.001-.001-.001-.001-.006-.001-.001-.006-.001-.001-.004-.001-.001-.001-.004-.001-.001-.001-.004-.001-.001-.001-.004-.001-.001-.001-.004-.001-.001-.001-.004-.001-.001-.001-.001-.004-.001-.001-.001-.001-.006-.001-.001-.001-.001-.001-.008-.001-.001-.001-.001-.001-.001-.001-.001-.001-.001-.001-.001-.001-.001-.001-.001-.001-.001-.001-.005-.001-.001-.001-.003-.002-.001-.003-.003-.003-.001-.001-.001-.001-.001-.003-.001-.003-.001-.001-.001-.003-.001-.001-.001v1.5H27.669v-1.5zm-.442-3.917h6.788v-1.5h-6.788v1.5zm0 2.396h6.788v-1.5h-6.788v1.5zm-.152 2.728l4.323 5.62 1.189-.914-4.323-5.62-1.19.914z" fill="#fff"/></svg>