<svg width="31" height="40" fill="none" xmlns="http://www.w3.org/2000/svg"><path d="M19.047 20c0 .64.32.64 1.92 2.24 6.082 4.16 6.723 11.2 6.723 12.8h1.12a2.08 2.08 0 010 4.16H3.04a2.24 2.24 0 010-4.48h.961c0-1.6.64-8.64 6.723-12.8 1.6-1.28 1.92-1.28 1.92-1.92 0-.64 0-.64-1.6-2.24C4.96 13.92 4 7.2 4 5.28H3.04a2.24 2.24 0 110-4.48h25.29a2.24 2.24 0 010 4.48h-.96c0 1.92-.96 8.64-6.723 12.48-1.6 1.6-1.6 1.28-1.6 2.24z" fill="#5FBF24"/><path d="M22.887 32.48H8.802c-.64 0-1.28-.64-.96-1.28.96-3.2 3.84-5.44 5.762-6.72.64-.64 1.28-1.6 1.28-2.56V18.4c-.32-.64-.64-1.6-1.28-1.92l-3.522-3.52c-.64-.64 0-1.6.64-1.6h10.244c.64 0 .96.96.64 1.28l-3.84 3.84c-.641.32-.961 1.28-.961 1.92v3.52c0 .96.32 1.92 1.28 2.56 1.6 1.28 4.802 3.84 5.762 6.72 0 .64-.32 1.28-.96 1.28z" fill="#C5F5A6"/></svg>