<svg width="42" height="38" fill="none" xmlns="http://www.w3.org/2000/svg"><path d="M29.018 37.8h-25.2A3.781 3.781 0 010 33.982V3.818A3.781 3.781 0 013.818 0h25.2a3.781 3.781 0 013.818 3.818v30.164a3.781 3.781 0 01-3.818 3.818z" fill="#F579A0"/><path d="M26.575 11.53H6.033c-.764 0-1.375-.61-1.375-1.374 0-.763.611-1.374 1.375-1.374h20.465c.764 0 1.375.61 1.375 1.374.076.764-.535 1.375-1.298 1.375zM11.302 20.313h-5.27a1.369 1.369 0 01-1.374-1.375c0-.763.611-1.374 1.375-1.374h5.192c.764 0 1.375.61 1.375 1.374.076.764-.534 1.375-1.298 1.375zM31.69 34.364c5.694 0 10.31-4.616 10.31-10.31 0-5.693-4.616-10.308-10.31-10.308-5.693 0-10.308 4.615-10.308 10.309 0 5.693 4.615 10.309 10.309 10.309z" fill="#FFBED3"/><path d="M26.415 23.994l3.578 3.578 7.09-7.013" stroke="#fff" stroke-width="2" stroke-miterlimit="10"/></svg>